<?xml version="1.0" encoding="UTF-8" standalone="no"?>
<svg
   xmlns:dc="http://purl.org/dc/elements/1.1/"
   xmlns:cc="http://creativecommons.org/ns#"
   xmlns:rdf="http://www.w3.org/1999/02/22-rdf-syntax-ns#"
   xmlns:svg="http://www.w3.org/2000/svg"
   xmlns="http://www.w3.org/2000/svg"
   xmlns:sodipodi="http://sodipodi.sourceforge.net/DTD/sodipodi-0.dtd"
   xmlns:inkscape="http://www.inkscape.org/namespaces/inkscape"
   width="5.6513233mm"
   height="4.1892362mm"
   viewBox="0 0 5.6513233 4.1892362"
   version="1.1"
   id="svg16215"
   inkscape:version="1.0.2-2 (e86c870879, 2021-01-15)"
   sodipodi:docname="Ligne TPG A1.svg">
  <defs
     id="defs16209" />
  <sodipodi:namedview
     id="base"
     pagecolor="#ffffff"
     bordercolor="#666666"
     borderopacity="1.0"
     inkscape:pageopacity="0.0"
     inkscape:pageshadow="2"
     inkscape:zoom="0.35"
     inkscape:cx="727.82251"
     inkscape:cy="79.345234"
     inkscape:document-units="mm"
     inkscape:current-layer="layer1"
     inkscape:document-rotation="0"
     showgrid="false"
     fit-margin-top="0"
     fit-margin-left="0"
     fit-margin-right="0"
     fit-margin-bottom="0"
     inkscape:window-width="1920"
     inkscape:window-height="1017"
     inkscape:window-x="-8"
     inkscape:window-y="-8"
     inkscape:window-maximized="1" />
  <metadata
     id="metadata16212">
    <rdf:RDF>
      <cc:Work
         rdf:about="">
        <dc:format>image/svg+xml</dc:format>
        <dc:type
           rdf:resource="http://purl.org/dc/dcmitype/StillImage" />
        <dc:title></dc:title>
      </cc:Work>
    </rdf:RDF>
  </metadata>
  <g
     inkscape:label="Calque 1"
     inkscape:groupmode="layer"
     id="layer1"
     transform="translate(86.736372,-127.17324)">
    <g
       id="g16168"
       transform="matrix(0.35277777,0,0,0.35277777,-361.25112,149.103)">
      <path
         style="fill:#7a6bbd;fill-opacity:1;fill-rule:nonzero;stroke:none"
         d="m 788.23797,-62.1631 c -0.004,0 -0.0117,0.004 -0.0156,0.004 l -4.13281,-0.004 c -3.27734,0 -5.9375,2.66016 -5.9375,5.9375 0,3.27735 2.66016,5.9375 5.9375,5.9375 h 4.13281 c 0.004,0 0.0117,0 0.0156,0 3.27734,0 5.93359,-2.66015 5.93359,-5.9375 0,-3.27734 -2.65625,-5.9375 -5.93359,-5.9375"
         id="path7239" />
      <path
         style="fill:#ffffff;fill-opacity:1;fill-rule:nonzero;stroke:none"
         d="m 783.13641,-55.45216 h 1.55078 l -0.75391,-2.39062 h -0.0195 z m -0.11328,-4.28515 h 1.80859 l 2.55469,6.83203 h -1.85547 l -0.42188,-1.22657 h -2.38281 l -0.42969,1.22657 h -1.82812 z m 0,0"
         id="path7241" />
      <path
         style="fill:#ffffff;fill-opacity:1;fill-rule:nonzero;stroke:none"
         d="m 787.53094,-56.99903 v -1.19532 c 0.93359,0.0156 1.90234,-0.32812 1.96875,-1.3789 h 1.34765 v 6.66797 h -1.71875 v -4.09375 z m 0,0"
         id="path7243" />
    </g>
  </g>
</svg>
