<?xml version="1.0" encoding="utf-8"?>
<!-- Generator: Adobe Illustrator 16.0.0, SVG Export Plug-In . SVG Version: 6.00 Build 0)  -->
<!DOCTYPE svg PUBLIC "-//W3C//DTD SVG 1.1//EN" "http://www.w3.org/Graphics/SVG/1.1/DTD/svg11.dtd">
<svg version="1.1"
	 id="Layer_1" inkscape:version="0.46" inkscape:output_extension="org.inkscape.output.svg.inkscape" sodipodi:version="0.32" sodipodi:docname="20090101024514!Metro-M.svg" xmlns:svg="http://www.w3.org/2000/svg" xmlns:dc="http://purl.org/dc/elements/1.1/" xmlns:cc="http://creativecommons.org/ns#" xmlns:rdf="http://www.w3.org/1999/02/22-rdf-syntax-ns#" xmlns:sodipodi="http://sodipodi.sourceforge.net/DTD/sodipodi-0.dtd" xmlns:inkscape="http://www.inkscape.org/namespaces/inkscape"
	 xmlns="http://www.w3.org/2000/svg" xmlns:xlink="http://www.w3.org/1999/xlink" x="0px" y="0px" width="400px" height="400px"
	 viewBox="0 0 400 400" enable-background="new 0 0 400 400" xml:space="preserve">
<defs>
	
	
		<inkscape:perspective  id="perspective10" inkscape:persp3d-origin="200 : 133.33333 : 1" sodipodi:type="inkscape:persp3d" inkscape:vp_x="0 : 200 : 1" inkscape:vp_y="0 : 1000 : 0" inkscape:vp_z="400 : 200 : 1">
		</inkscape:perspective>
</defs>
<sodipodi:namedview  id="base" inkscape:window-y="0" inkscape:window-x="207" inkscape:window-width="1231" inkscape:current-layer="Layer_1" inkscape:pageopacity="0.0" inkscape:pageshadow="2" inkscape:window-height="942" gridtolerance="10.0" inkscape:cx="126.90217" bordercolor="#666666" pagecolor="#ffffff" guidetolerance="10.0" showgrid="false" borderopacity="1.0" inkscape:cy="200" inkscape:zoom="1.165" objecttolerance="10.0">
	</sodipodi:namedview>
<circle fill="#5C2D91" cx="199.75" cy="200.25" r="189.75"/>
<g>
	<path fill="#FFFFFF" d="M196.391,231.866c0,13.135-4.062,23.356-12.186,30.668s-18.821,10.967-32.089,10.967H91.594V128.897h58.085
		c13.944,0,24.879,3.656,32.8,10.967c7.921,7.311,11.881,17.196,11.881,29.652c0,7.312-2.031,13.88-6.093,19.7
		c-3.386,4.604-7.311,7.991-11.779,10.155C189.755,205.602,196.391,216.432,196.391,231.866z M166.13,170.734
		c0-5.007-1.625-9.038-4.875-12.084s-7.854-4.57-13.811-4.57h-27.621v33.308h27.621c5.957,0,10.561-1.523,13.811-4.569
		C164.505,179.773,166.13,175.745,166.13,170.734z M168.161,230.443c0-5.144-1.625-9.373-4.874-12.692
		c-3.25-3.315-7.921-4.976-14.014-4.976h-29.449v35.541h29.449c6.093,0,10.764-1.69,14.014-5.077
		C166.536,239.855,168.161,235.592,168.161,230.443z"/>
	<path fill="#FFFFFF" d="M308.295,273.501h-87.941v-23.762l53.847-62.757c4.991-5.82,7.489-11.643,7.489-17.466
		c0-5.414-1.52-9.78-4.555-13.1c-3.037-3.316-7.32-4.976-12.855-4.976c-11.739,0-17.606,6.163-17.606,18.482h-26.317
		c0-12.862,4.266-23.22,12.795-31.074c8.125-7.445,18.549-11.17,31.276-11.17c12.998,0,23.56,3.792,31.685,11.374
		c8.123,7.584,12.186,17.806,12.186,30.667c0,6.499-1.354,12.322-4.062,17.466c-1.896,3.928-5.687,9.139-11.374,15.638
		l-40.416,46.916h55.853v23.762H308.295z"/>
</g>
</svg>
